<?xml version="1.0" encoding="UTF-8"?>
<svg id="Layer_2" data-name="Layer 2" xmlns="http://www.w3.org/2000/svg" viewBox="0 0 216.36 251.83">
  <defs>
    <style>
      .cls-1 {
        fill: #f86f03;
        stroke-width: 0px;
      }
    </style>
  </defs>
  <g id="Layer_2-2" data-name="Layer 2">
    <g id="S4">
      <path id="S3" class="cls-1" d="m186.42,138.25c7.08-7,7.2-18.39.28-25.55l-40.75-42.12-72.38,70.59-17.35-17.95,87.93-86.14,59.98,60.38c16.41,16.52,16.27,43.23-.31,59.57l-96.16,94.79-17.35-18.54,96.09-95.04ZM126.04,18.54L108.69,0,12.53,94.79c-16.58,16.34-16.72,43.05-.31,59.57l59.98,60.38,87.93-86.14-17.35-17.95-72.38,70.59-40.75-42.12c-6.92-7.15-6.8-18.55.28-25.55L126.04,18.54Z"/>
    </g>
  </g>
</svg>